<?xml version="1.0" encoding="UTF-8"?>
<svg width="400px" height="400px" viewBox="0 0 400 400" version="1.1" xmlns="http://www.w3.org/2000/svg" xmlns:xlink="http://www.w3.org/1999/xlink">
    <!-- Generator: Sketch 51.3 (57544) - http://www.bohemiancoding.com/sketch -->
    <title>Liquid Letter Icon</title>
    <desc>Created with Sketch.</desc>
    <defs>
        <path d="M103.911133,189.34668 L90.7519531,186.988281 C91.8457086,182.795552 93.9477384,179.582693 97.0581055,177.349609 C100.168473,175.116525 104.571912,174 110.268555,174 C116.808301,174 121.536444,175.219063 124.453125,177.657227 C127.369806,180.09539 128.828125,183.160138 128.828125,186.851562 C128.828125,189.016287 128.235683,190.975903 127.050781,192.730469 C125.865879,194.485035 124.07716,196.023105 121.68457,197.344727 C123.621429,197.823245 125.102534,198.381507 126.12793,199.019531 C127.791349,200.044927 129.084468,201.395011 130.007324,203.069824 C130.93018,204.744637 131.391602,206.744129 131.391602,209.068359 C131.391602,211.985041 130.628263,214.78205 129.101562,217.459473 C127.574862,220.136895 125.375991,222.199049 122.504883,223.645996 C119.633775,225.092943 115.862654,225.816406 111.191406,225.816406 C106.634092,225.816406 103.039564,225.28093 100.407715,224.209961 C97.7758657,223.138992 95.6111739,221.572439 93.9135742,219.510254 C92.2159746,217.448069 90.9114629,214.856135 90,211.734375 L103.911133,209.888672 C104.458011,212.69142 105.306798,214.633946 106.45752,215.716309 C107.608241,216.798671 109.072257,217.339844 110.849609,217.339844 C112.718108,217.339844 114.273269,216.656257 115.515137,215.289062 C116.757005,213.921868 117.37793,212.09897 117.37793,209.820312 C117.37793,207.496082 116.779791,205.69597 115.583496,204.419922 C114.387201,203.143874 112.763682,202.505859 110.712891,202.505859 C109.619135,202.505859 108.115244,202.779294 106.201172,203.326172 L106.918945,193.379883 C107.693689,193.493816 108.297524,193.550781 108.730469,193.550781 C110.553395,193.550781 112.074375,192.969732 113.293457,191.807617 C114.512539,190.645502 115.12207,189.266935 115.12207,187.671875 C115.12207,186.145175 114.666346,184.926111 113.754883,184.014648 C112.84342,183.103186 111.590177,182.647461 109.995117,182.647461 C108.354484,182.647461 107.02149,183.143061 105.996094,184.134277 C104.970698,185.125493 104.275718,186.862943 103.911133,189.34668 Z" id="path-1"></path>
        <path d="M221.767578,135.961914 L180,135.961914 C180.478518,131.837544 181.93114,127.958189 184.35791,124.32373 C186.78468,120.689272 191.33623,116.399764 198.012695,111.455078 C202.091492,108.424464 204.700515,106.123055 205.839844,104.550781 C206.979172,102.978508 207.548828,101.48601 207.548828,100.073242 C207.548828,98.5465418 206.984869,97.2420302 205.856934,96.159668 C204.728998,95.0773058 203.310555,94.5361328 201.601562,94.5361328 C199.82421,94.5361328 198.371588,95.0943955 197.243652,96.2109375 C196.115717,97.3274795 195.358075,99.2984885 194.970703,102.124023 L181.025391,100.996094 C181.572268,97.0768033 182.574862,94.0177519 184.033203,91.8188477 C185.491544,89.6199434 187.548001,87.9337624 190.202637,86.7602539 C192.857272,85.5867454 196.531552,85 201.225586,85 C206.124699,85 209.935696,85.5582626 212.658691,86.6748047 C215.381687,87.7913467 217.523592,89.5060106 219.084473,91.8188477 C220.645353,94.1316847 221.425781,96.7236185 221.425781,99.5947266 C221.425781,102.648127 220.531422,105.564765 218.742676,108.344727 C216.95393,111.124688 213.701195,114.178043 208.984375,117.504883 C206.181627,119.441741 204.307459,120.797522 203.361816,121.572266 C202.416174,122.347009 201.305345,123.360996 200.029297,124.614258 L221.767578,124.614258 L221.767578,135.961914 Z" id="path-2"></path>
        <path d="M303.710938,175 L303.710938,225.961914 L289.628906,225.961914 L289.628906,192.568359 C287.350249,194.300139 285.145681,195.701492 283.015137,196.772461 C280.884592,197.84343 278.212907,198.86881 275,199.848633 L275,188.432617 C279.739607,186.905917 283.419583,185.071625 286.040039,182.929688 C288.660495,180.78775 290.711256,178.144547 292.192383,175 L303.710938,175 Z" id="path-3"></path>
    </defs>
    <g id="Page-1" stroke="none" stroke-width="1" fill="none" fill-rule="evenodd">
        <g id="Liquid-Letter-Icon">
            <polygon id="Path-3" fill="#4A90E2" fill-rule="nonzero" points="110.777344 113.388672 200 200 110.777344 289.222656 23.4003906 201.305664"></polygon>
            <polygon id="Path-5" fill="#D0021B" fill-rule="nonzero" points="289.169922 110.830078 380 200 289.169922 289.222656 200 200.026367"></polygon>
            <polygon id="Path-6" fill="#FFFFFF" fill-rule="nonzero" points="200 200 289.169922 289.222656 200 380 113.230469 290"></polygon>
            <polygon id="Path-4" fill="#F8E71C" fill-rule="nonzero" points="110.777344 110.830078 200 20 289.169922 113.388672 200 200"></polygon>
            <path d="M200,5.65685425 L5.65685425,200 L200,394.343146 L394.343146,200 L200,5.65685425 Z" id="Path" stroke="#000000" stroke-width="8" fill-rule="nonzero"></path>
            <path d="M200,21.6568542 L21.6568542,200 L200,378.343146 L378.343146,200 L200,21.6568542 Z" id="Path" stroke="#000000" stroke-width="8" fill-rule="nonzero"></path>
            <path d="M289.169922,110.830078 L110.777344,289.222656 L289.169922,110.830078 Z" id="Path-2" stroke="#000000" stroke-width="9" fill-rule="nonzero"></path>
            <path d="M289.169922,110.830078 L110.777344,289.222656 L289.169922,110.830078 Z" id="Path-2" stroke="#000000" stroke-width="9" fill-rule="nonzero" transform="translate(199.973633, 200.026367) rotate(-270.000000) translate(-199.973633, -200.026367) "></path>
            <g id="3">
                <use fill="#FFFFFF" xlink:href="#path-1"></use>
                <use fill="#000000" xlink:href="#path-1"></use>
            </g>
            <g id="2">
                <use fill="#FFFFFF" xlink:href="#path-2"></use>
                <use fill="#000000" xlink:href="#path-2"></use>
            </g>
            <g id="1">
                <use fill="#FFFFFF" xlink:href="#path-3"></use>
                <use fill="#000000" xlink:href="#path-3"></use>
            </g>
            <path d="M168.707138,300.600489 L156.31963,300.600489 L154.615148,306.410134 L143.5,306.410134 L156.727746,271.216167 L168.587104,271.216167 L181.81485,306.410134 L170.435628,306.410134 L168.707138,300.600489 Z M166.426492,292.990334 L162.537391,280.338751 L158.672297,292.990334 L166.426492,292.990334 Z M185.319843,271.216167 L205.677608,271.216167 C209.070586,271.216167 211.675297,272.056397 213.491821,273.736881 C215.308344,275.417366 216.216592,277.497934 216.216592,279.978649 C216.216592,282.059248 215.568415,283.843736 214.272042,285.332165 C213.407793,286.324451 212.143447,287.108665 210.478967,287.684831 C213.007696,288.293006 214.868205,289.337292 216.060548,290.817718 C217.252892,292.298145 217.849055,294.158653 217.849055,296.399299 C217.849055,298.223825 217.424939,299.864273 216.576694,301.320693 C215.72845,302.777112 214.568133,303.929427 213.095709,304.777672 C212.183446,305.305824 210.80707,305.689929 208.966539,305.929998 C206.517834,306.25009 204.89339,306.410134 204.093159,306.410134 L185.319843,306.410134 L185.319843,271.216167 Z M196.29095,285.020076 L201.020289,285.020076 C202.716778,285.020076 203.8971,284.727997 204.561292,284.143828 C205.225483,283.55966 205.557574,282.715429 205.557574,281.611111 C205.557574,280.586816 205.225483,279.786597 204.561292,279.210431 C203.8971,278.634265 202.740784,278.346187 201.092309,278.346187 L196.29095,278.346187 L196.29095,285.020076 Z M196.29095,298.847992 L201.83652,298.847992 C203.70906,298.847992 205.02942,298.515902 205.797642,297.85171 C206.565863,297.187519 206.949968,296.295275 206.949968,295.174952 C206.949968,294.134652 206.569864,293.298424 205.809645,292.666242 C205.049426,292.03406 203.717062,291.717973 201.812513,291.717973 L196.29095,291.717973 L196.29095,298.847992 Z M246.969301,292.030062 L256.5,294.910877 C255.859816,297.583648 254.85154,299.816258 253.475143,301.608774 C252.098747,303.401291 250.39028,304.75366 248.349692,305.665923 C246.309104,306.578186 243.712394,307.034311 240.559486,307.034311 C236.734384,307.034311 233.60953,306.478159 231.184831,305.365838 C228.760132,304.253518 226.667561,302.296983 224.907053,299.496176 C223.146546,296.695369 222.266306,293.110389 222.266306,288.74113 C222.266306,282.915451 223.814729,278.438228 226.911621,275.309327 C230.008513,272.180425 234.38971,270.615997 240.055343,270.615997 C244.488621,270.615997 247.973573,271.512242 250.510304,273.304759 C253.047035,275.097275 254.93155,277.850027 256.163905,281.563098 L246.561185,283.699703 C246.225089,282.627394 245.872992,281.843179 245.504886,281.347036 C244.896711,280.514796 244.152508,279.874622 243.272254,279.426492 C242.392,278.978363 241.407732,278.754302 240.319418,278.754302 C237.854708,278.754302 235.966192,279.746573 234.653813,281.731145 C233.661528,283.203569 233.165392,285.516201 233.165392,288.66911 C233.165392,292.574235 233.757554,295.250966 234.941895,296.699384 C236.126236,298.147801 237.790691,298.871999 239.935309,298.871999 C242.015909,298.871999 243.588338,298.28784 244.652645,297.119503 C245.716952,295.951166 246.489163,294.254703 246.969301,292.030062 Z" id="ABC" fill="#000000"></path>
        </g>
    </g>
</svg>